<?xml version="1.0" encoding="utf-8"?>
<!-- Generator: Adobe Illustrator 22.0.1, SVG Export Plug-In . SVG Version: 6.00 Build 0)  -->
<svg version="1.1" id="Layer_1" xmlns="http://www.w3.org/2000/svg" xmlns:xlink="http://www.w3.org/1999/xlink" x="0px" y="0px"
	 viewBox="0 0 30 30" style="enable-background:new 0 0 30 30;" xml:space="preserve">
<style type="text/css">
	.st0{fill:#017D44;}
</style>
<path class="st0" d="M27,0L27,0H3.1H3C1.3,0,0,1.3,0,3v24c0,1.7,1.3,3,3,3h24c1.7,0,3-1.3,3-3V3C30,1.3,28.7,0,27,0z M7.2,8.7
	c-1.3,0-2.4-1.1-2.4-2.4c0-1.3,1.1-2.4,2.4-2.4c1.3,0,2.4,1.1,2.4,2.4C9.6,7.6,8.6,8.7,7.2,8.7z M9.6,10.5L9.3,23.9H5.5V10.5H9.6z
	 M24.9,23.9h-4.1v-6.5c0-1.6,0-3.5-2.2-3.5c-2.2,0-2.5,1.7-2.5,3.4v6.6h-4.2V10.5h4v1.8h0.1c0.6-1,1.9-2.2,3.9-2.2
	c4.2,0,5,2.8,5,6.4V23.9z M3,28C3,28,3,28,3,28C3,28,3,28,3,28L3,28z M26.9,28c0,0,0.1,0,0.1,0C27,28,27,28,26.9,28L26.9,28z"/>
</svg>
