<?xml version="1.0" encoding="UTF-8"?>
<svg width="30px" height="24px" viewBox="0 0 30 24" version="1.1" xmlns="http://www.w3.org/2000/svg" xmlns:xlink="http://www.w3.org/1999/xlink">
    <!-- Generator: sketchtool 49.2 (51160) - http://www.bohemiancoding.com/sketch -->
    <title>0664F51C-1A34-40B5-9DD8-41BA4C4CFB38</title>
    <desc>Created with sketchtool.</desc>
    <defs></defs>
    <g id="Symbols" stroke="none" stroke-width="1" fill="none" fill-rule="evenodd">
        <g id="Top-Nav-2" transform="translate(-1268.000000, -48.000000)">
            <g id="Search" transform="translate(995.000000, 40.000000)">
                <g id="search-icon-nav" transform="translate(273.000000, 8.000000)">
                    <rect id="Rectangle-2" fill="#017D44" x="0" y="0" width="30" height="24" rx="3"></rect>
                    <path d="M21.6853249,16.8444942 L18.3369161,13.496201 C18.8419685,12.6666593 19.1325952,11.6926877 19.1325952,10.6504884 C19.1325952,7.62313094 16.5093353,5 13.4815019,5 C10.4543774,5 8,7.45442261 8,10.4819573 C8,13.5094921 10.6232598,16.1324458 13.6503844,16.1324458 C14.6569449,16.1324458 15.5997094,15.8598897 16.4102742,15.3863722 L19.7765813,18.7529185 C20.1060172,19.0823605 20.6401322,19.0823605 20.9692137,18.7529185 L21.8044109,17.9182376 C22.1342013,17.5886184 22.0147608,17.1739362 21.6853249,16.8444942 L21.6853249,16.8444942 Z M9.68722941,10.4819573 C9.68722941,8.3858627 11.386332,6.68672884 13.4816792,6.68672884 C15.5780896,6.68672884 17.4457202,8.55439382 17.4457202,10.6504884 C17.4457202,12.7465831 15.7466176,14.4457169 13.6505616,14.4457169 C11.55486,14.4457169 9.68722941,12.578052 9.68722941,10.4819573 L9.68722941,10.4819573 Z" id="Search" fill="#FFFFFF"></path>
                </g>
            </g>
        </g>
    </g>
</svg>