<?xml version="1.0" encoding="utf-8"?>
<!-- Generator: Adobe Illustrator 22.1.0, SVG Export Plug-In . SVG Version: 6.00 Build 0)  -->
<svg version="1.1" id="Layer_1" xmlns="http://www.w3.org/2000/svg" xmlns:xlink="http://www.w3.org/1999/xlink" x="0px" y="0px"
	 viewBox="0 0 85 20" style="enable-background:new 0 0 85 20;" xml:space="preserve">
<style type="text/css">
	.st0{fill:#FEFEFE;}
	.st1{filter:url(#Adobe_OpacityMaskFilter);}
	.st2{fill:#FFFFFF;}
	.st3{mask:url(#mask-2_1_);fill:#FEFEFE;}
	.st4{filter:url(#Adobe_OpacityMaskFilter_1_);}
	.st5{mask:url(#mask-4_1_);fill:#FEFEFE;}
</style>
<g id="Symbols">
	<g id="Mobile-Nav-_x2F_-Open" transform="translate(-22.000000, -15.000000)">
		<g id="Logo-_x2F_-White" transform="translate(22.000000, 15.000000)">
			<g id="Page-1">
				<polygon id="Fill-1" class="st0" points="18.1,0.2 16.6,2.5 51,2.5 50.3,5.1 57,0.2 				"/>
				<polygon id="Fill-2" class="st0" points="27.7,5.5 30.8,5.5 35.8,14 35.8,5.5 39.3,5.5 39.3,19.6 35.9,19.6 31.1,11 31.1,19.6 
					27.7,19.6 				"/>
				<polygon id="Fill-3" class="st0" points="51.5,5.5 59.5,5.5 59.5,8.7 55.1,8.7 55.1,10.9 59.3,10.9 59.3,14 55.1,14 55.1,16.5 
					59.5,16.5 59.5,19.7 51.5,19.7 				"/>
				<g id="Group-16" transform="translate(0.000000, 0.110677)">
					<g id="Group-6" transform="translate(71.285461, 5.112782)">
						<g id="Clip-5">
						</g>
						<defs>
							<filter id="Adobe_OpacityMaskFilter" filterUnits="userSpaceOnUse" x="0.1" y="0.1" width="13.5" height="14.6">
								<feColorMatrix  type="matrix" values="1 0 0 0 0  0 1 0 0 0  0 0 1 0 0  0 0 0 1 0"/>
							</filter>
						</defs>
						<mask maskUnits="userSpaceOnUse" x="0.1" y="0.1" width="13.5" height="14.6" id="mask-2_1_">
							<g class="st1">
								<polygon id="path-1_1_" class="st2" points="0.1,0.1 13.6,0.1 13.6,14.7 0.1,14.7 								"/>
							</g>
						</mask>
						<path id="Fill-4" class="st3" d="M13.5,6.5h-3.2H6.6H6.1v2.9H10c-0.6,1.4-1.8,2.4-3.2,2.4c-2,0-3.6-1.9-3.6-4.3
							c0-2.4,1.6-4.3,3.6-4.3c1.2,0,2.3,0.7,3,1.9h3.5c-0.9-2.9-3.4-5-6.4-5c-3.7,0-6.8,3.3-6.8,7.3s3,7.3,6.8,7.3
							c3.7,0,6.8-3.3,6.8-7.3c0-0.3,0-0.5,0-0.8L13.5,6.5z"/>
					</g>
					<path id="Fill-7" class="st0" d="M67.3,11.1c-0.4,0.3-1.2,0.4-2.3,0.4h-1.1V8h0.9c0.9,0,1.5,0.1,1.9,0.2
						c0.3,0.1,0.6,0.3,0.8,0.6c0.2,0.3,0.3,0.6,0.3,0.9C67.9,10.3,67.7,10.8,67.3,11.1z M68.5,14.4c1.6-0.8,2.7-2.4,2.7-4.2
						c0-2.6-2.2-4.7-5-4.7c0,0-0.1,0-0.1,0v0h-5.7v14H64v-6.9l3.8,6.9h3.7L68.5,14.4z"/>
					<path id="Fill-9" class="st0" d="M46.9,16.6c-0.4,0.3-1,0.4-2,0.4h-1v-3.3h0.8c0.8,0,1.4,0.1,1.7,0.2c0.3,0.1,0.6,0.3,0.7,0.6
						c0.2,0.3,0.3,0.6,0.3,0.9C47.5,15.9,47.3,16.4,46.9,16.6z M43.9,7.8h0.7c0.7,0,1.2,0,1.4,0.1c0.3,0.1,0.5,0.3,0.6,0.5
						c0.2,0.2,0.2,0.5,0.2,0.8c0,0.5-0.2,0.9-0.5,1.1c-0.3,0.2-0.9,0.3-1.7,0.3h-0.8V7.8z M48.8,12c0.9-0.7,1.5-1.7,1.5-2.9
						c0-1.9-1.5-3.4-3.3-3.6l0,0c0,0-0.1,0-0.5,0v0l-0.1,0c-0.1,0-0.2,0-0.3,0c0,0,0,0,0,0l-5.7,0.1v14h5.7c0,0,1,0.1,1.6-0.1
						c0,0,0,0,0,0c1.8-0.3,3.2-2,3.2-3.9C51,14,50.1,12.6,48.8,12z"/>
					<path id="Fill-11" class="st0" d="M17.1,9c-1.9,1.1-2.5,3.5-1.4,5.4c1.1,1.9,3.5,2.5,5.4,1.4c1.9-1.1,2.5-3.5,1.4-5.4
						C21.5,8.6,19,8,17.1,9z M27.3,12.5l-4.1,7.1l-8.2,0l-4.1-7.1L15,5.4l8.2,0L27.3,12.5z"/>
					<g id="Group-15">
						<g id="Clip-14">
						</g>
						<defs>
							<filter id="Adobe_OpacityMaskFilter_1_" filterUnits="userSpaceOnUse" x="0" y="0" width="17.2" height="19.5">
								<feColorMatrix  type="matrix" values="1 0 0 0 0  0 1 0 0 0  0 0 1 0 0  0 0 0 1 0"/>
							</filter>
						</defs>
						<mask maskUnits="userSpaceOnUse" x="0" y="0" width="17.2" height="19.5" id="mask-4_1_">
							<g class="st4">
								<polygon id="path-3_1_" class="st2" points="0,0 17.2,0 17.2,19.5 0,19.5 								"/>
							</g>
						</mask>
						<polygon id="Fill-13" class="st5" points="0,0 4.1,0 4.1,13 12.7,0 17.2,0 5.2,19.5 0,19.5 						"/>
					</g>
				</g>
			</g>
		</g>
	</g>
</g>
</svg>
