<svg id="Layer_1" data-name="Layer 1" xmlns="http://www.w3.org/2000/svg" viewBox="0 0 615.5 212.16"><defs><style>.cls-1{fill:#00703c;}</style></defs><title>Vonberg-Logo</title><polygon class="cls-1" points="148.31 20.87 138.64 36.38 367.25 36.47 362.1 53.42 362.1 53.42 406.6 20.83 148.31 20.87"/><polygon class="cls-1" points="212.16 56.11 232.76 56.11 266.19 113.02 266.19 56.11 289.05 56.11 289.05 150.07 266.45 150.07 234.84 92.92 234.84 150.07 212.16 150.07 212.16 56.11"/><polygon class="cls-1" points="370.07 56.24 423.33 56.24 423.33 77.59 394.06 77.59 394.06 92.17 422.33 92.17 422.33 113.02 393.82 113.02 393.82 129.22 423.33 129.22 423.33 150.45 370.07 150.45 370.07 56.24"/><path class="cls-1" d="M591.25,97.31H541.94v19.37h26.11c-3.88,9.41-12,15.91-21.43,15.91-13.2,0-23.9-12.7-23.9-28.38s10.7-28.38,23.9-28.38c8.17,0,15.37,4.9,19.66,12.35h23C583.33,68.91,566.6,55,546.83,55,522.06,55,502,76.8,502,103.68s20.08,48.66,44.85,48.66,44.85-21.79,44.85-48.66a51.9,51.9,0,0,0-.28-5.32l-.15-1Z"/><path class="cls-1" d="M483.08,116C493.7,110.77,501,100.28,501,88.19,501,71,486.24,57,468.07,57l-.66,0v0h-38v93.08H453v-46l25,46H502.6Zm-8.18-22.1c-2.73,1.76-7.7,2.64-14.94,2.64h-7.12V73.76h6.23c6.05,0,10.21.38,12.47,1.17A11.16,11.16,0,0,1,477,78.78a10.18,10.18,0,0,1,2,6.31Q479,91.21,474.9,93.85Z"/><path class="cls-1" d="M352.16,100.08a23.71,23.71,0,0,0,10-19.3A24,24,0,0,0,340.2,57h0a20.57,20.57,0,0,0-3.15-.27h-.41c-.63,0-1.34,0-2.16,0a.1.1,0,0,0,0,0l-38,.41v92.89h37.93s6.81.35,10.73-.7c0,0,.05,0,.08,0a26.25,26.25,0,0,0,7-49.26ZM319.91,72.31h4.71q6.84,0,9.41,1a8.49,8.49,0,0,1,4.1,3.13,8.74,8.74,0,0,1,1.53,5.14c0,3.33-1,5.7-3.09,7.14s-5.82,2.15-11.28,2.15h-5.38Zm19.86,58.6q-3.69,2.57-13.45,2.57h-6.41V111.41h5.61q8.16,0,11.22,1.13a10.12,10.12,0,0,1,4.88,3.74,10.39,10.39,0,0,1,1.83,6.12C343.45,126.37,342.21,129.2,339.77,130.91Z"/><path class="cls-1" d="M209.88,103.2l-27.21,47.13H128.24L101,103.2l27.21-47.14h54.42ZM142.33,80.47a26.24,26.24,0,1,0,35.85,9.61A26.24,26.24,0,0,0,142.33,80.47Z"/><polygon class="cls-1" points="28.6 20.61 55.96 20.61 55.88 106.79 112.54 20.66 142.58 20.66 63 150.31 28.54 150.31 28.6 20.61"/><path class="cls-1" d="M188.28,173.13l3.95-7.48h5L187,185h-5l4.2-7.94h-7.27l-4.2,7.94h-5l10.23-19.37h5l-4,7.48Z"/><path class="cls-1" d="M201,165.65h6l.85,5.27,6.4-5.27h6l-12.47,10.07-4.91,9.3h-5l4.92-9.3Z"/><path class="cls-1" d="M224,165.65h7.14c5.4,0,7.61,4.24,4.73,9.69s-9.59,9.68-15,9.68h-7.15Zm-2.95,15.11h1.13a9.65,9.65,0,0,0,8.44-5.42c1.84-3.47.58-5.42-2.66-5.42h-1.18Z"/><path class="cls-1" d="M251.79,185h-6.27l-.82-7.45h0L240.72,185h-5l10.24-19.37h7.53c3.82,0,5.76,1.83,3.58,6a10.46,10.46,0,0,1-7.13,5.47Zm-5.43-10.68h.49c1.65,0,3.66-.31,4.77-2.42s-.57-2.41-2.22-2.41h-.48Z"/><path class="cls-1" d="M262.43,181.66,259.32,185H254l17.69-19.37h5.5L274.22,185h-5.37l.52-3.36Zm8.82-10h-.06l-5.33,6.16H270Z"/><path class="cls-1" d="M305.39,165.65l-5.76,10.89c-1.31,2.5-2.72,5-5.63,6.84a14.22,14.22,0,0,1-7.57,2.15c-2.26,0-4.51-.56-5.28-2.15-.94-1.88.26-4.34,1.58-6.84l5.75-10.89h5l-5.39,10.2c-1.33,2.52-2.6,5.27.64,5.27s4.86-2.75,6.19-5.27l5.39-10.2Z"/><path class="cls-1" d="M308.2,180.76h6L312,185H300.91l10.23-19.37h5Z"/><path class="cls-1" d="M321.23,185h-5l10.24-19.37h5Z"/><path class="cls-1" d="M347.73,172.15c-.29-1.38-1.57-2.13-3.29-2.13-3.08,0-6.41,2.36-8,5.37s-.68,5.26,2.46,5.26a9.93,9.93,0,0,0,5.43-2.05l-3.19,6a19.18,19.18,0,0,1-4.92.89c-2.7,0-4.73-1-5.77-2.85s-.76-4.44.76-7.32a20.16,20.16,0,0,1,6.6-7.09,17.43,17.43,0,0,1,9-3.13,8.37,8.37,0,0,1,4.08,1Z"/><path class="cls-1" d="M363,185h-5l10.23-19.37h5Z"/><path class="cls-1" d="M379.11,165.65h5l3,11.84h.05l6.26-11.84h5L388.23,185h-5l-2.95-11.87h-.05L373.92,185h-5Z"/><path class="cls-1" d="M404.32,165.65h5l3,11.84h.05l6.26-11.84h5L413.43,185h-5l-2.95-11.87h-.05L399.12,185h-5Z"/><path class="cls-1" d="M445,175c-3.31,6.27-10.14,10.68-16.36,10.68s-8.38-4.41-5.07-10.68c3.1-5.86,10.41-10,16-10S448.14,169.12,445,175Zm-16.2,0c-1.76,3.34-.59,5.78,2.42,5.78s6.76-2.44,8.53-5.78c1.41-2.67.23-5.11-2.77-5.11S430.25,172.33,428.84,175Z"/><path class="cls-1" d="M454.72,177.42l10.92-11.77h5.47L452.6,185h-3.9l2.09-19.37h5.47Z"/><path class="cls-1" d="M469.1,181.66,466,185h-5.35l17.69-19.37h5.5L480.89,185h-5.37l.52-3.36Zm8.82-10h-.05l-5.34,6.16h4.19Z"/><path class="cls-1" d="M491.2,185h-5l8-15.1H490l2.25-4.27h13.36l-2.25,4.27h-4.16Z"/><path class="cls-1" d="M504.79,185h-5L510,165.65h5Z"/><path class="cls-1" d="M536.4,175c-3.31,6.27-10.14,10.68-16.36,10.68S511.66,181.25,515,175c3.1-5.86,10.41-10,16-10S539.5,169.12,536.4,175Zm-16.2,0c-1.76,3.34-.59,5.78,2.42,5.78s6.76-2.44,8.53-5.78c1.41-2.67.23-5.11-2.78-5.11S521.61,172.33,520.2,175Z"/><path class="cls-1" d="M545,165.65h5l3,11.84h0l6.26-11.84h5L554.06,185h-5l-2.95-11.87H546L539.75,185h-5Z"/></svg>