<?xml version="1.0" encoding="utf-8"?>
<!-- Generator: Adobe Illustrator 22.0.1, SVG Export Plug-In . SVG Version: 6.00 Build 0)  -->
<svg version="1.1" id="Layer_1" xmlns="http://www.w3.org/2000/svg" xmlns:xlink="http://www.w3.org/1999/xlink" x="0px" y="0px"
	 viewBox="0 0 615.5 212.2" style="enable-background:new 0 0 615.5 212.2;" xml:space="preserve">
<style type="text/css">
	.st0{fill:#00703C;}
</style>
<polygon class="st0" points="148.3,20.9 138.6,36.4 367.2,36.5 362.1,53.4 362.1,53.4 406.6,20.8 "/>
<polygon class="st0" points="212.2,56.1 232.8,56.1 266.2,113 266.2,56.1 289.1,56.1 289.1,150.1 266.4,150.1 234.8,92.9 
	234.8,150.1 212.2,150.1 "/>
<polygon class="st0" points="370.1,56.2 423.3,56.2 423.3,77.6 394.1,77.6 394.1,92.2 422.3,92.2 422.3,113 393.8,113 393.8,129.2 
	423.3,129.2 423.3,150.5 370.1,150.5 "/>
<path class="st0" d="M591.3,97.3h-21.5h-24.6h-3.2v19.4h26.1c-3.9,9.4-12,15.9-21.4,15.9c-13.2,0-23.9-12.7-23.9-28.4
	c0-15.7,10.7-28.4,23.9-28.4c8.2,0,15.4,4.9,19.7,12.3h23c-6-19.3-22.7-33.2-42.5-33.2c-24.8,0-44.8,21.8-44.8,48.7
	s20.1,48.7,44.8,48.7c24.8,0,44.8-21.8,44.8-48.7c0-1.8-0.1-3.6-0.3-5.3L591.3,97.3L591.3,97.3z"/>
<path class="st0" d="M483.1,115.9c10.6-5.2,17.9-15.7,17.9-27.8C501,71,486.2,57,468.1,57c-0.2,0-0.4,0-0.7,0v0h-38v93.1H453v-46
	l25,46h24.6L483.1,115.9z M474.9,93.9c-2.7,1.8-7.7,2.6-14.9,2.6h-7.1V73.8h6.2c6,0,10.2,0.4,12.5,1.2c2.3,0.8,4.1,2.1,5.4,3.8
	c1.4,1.8,2,3.9,2,6.3C479,89.2,477.6,92.1,474.9,93.9z"/>
<path class="st0" d="M352.2,100.1c6.1-4.3,10-11.4,10-19.3c0-12.4-9.6-22.6-22-23.8l0,0c0,0-0.9-0.2-3.1-0.3v0l-0.4,0
	c-0.6,0-1.3,0-2.2,0c0,0,0,0,0,0l-38,0.4v92.9h37.9c0,0,6.8,0.3,10.7-0.7c0,0,0.1,0,0.1,0c12.2-2.3,21.4-13,21.4-25.8
	C366.6,113.3,360.7,104.4,352.2,100.1z M319.9,72.3h4.7c4.6,0,7.7,0.3,9.4,1c1.7,0.6,3.1,1.7,4.1,3.1c1,1.5,1.5,3.2,1.5,5.1
	c0,3.3-1,5.7-3.1,7.1c-2.1,1.4-5.8,2.2-11.3,2.2h-5.4V72.3z M339.8,130.9c-2.5,1.7-6.9,2.6-13.4,2.6h-6.4v-22.1h5.6
	c5.4,0,9.2,0.4,11.2,1.1c2,0.8,3.7,2,4.9,3.7c1.2,1.7,1.8,3.8,1.8,6.1C343.4,126.4,342.2,129.2,339.8,130.9z"/>
<path class="st0" d="M209.9,103.2l-27.2,47.1l-54.4,0L101,103.2l27.2-47.1l54.4,0L209.9,103.2z M142.3,80.5
	c-12.5,7.2-16.9,23.3-9.6,35.8c7.2,12.6,23.3,16.8,35.8,9.6c12.6-7.2,16.9-23.3,9.6-35.8C170.9,77.5,154.9,73.2,142.3,80.5z"/>
<polygon class="st0" points="28.6,20.6 56,20.6 55.9,106.8 112.5,20.7 142.6,20.7 63,150.3 28.5,150.3 "/>
<g>
	<path class="st0" d="M188.3,173.1l4-7.5h5L187,185h-5l4.2-7.9h-7.3l-4.2,7.9h-5l10.2-19.4h5l-4,7.5H188.3z"/>
	<path class="st0" d="M201,165.7h6l0.8,5.3l6.4-5.3h6l-12.5,10.1l-4.9,9.3h-5l4.9-9.3L201,165.7z"/>
	<path class="st0" d="M224,165.7h7.1c5.4,0,7.6,4.2,4.7,9.7c-2.9,5.4-9.6,9.7-15,9.7h-7.1L224,165.7z M221.1,180.8h1.1
		c3,0,6.4-1.6,8.4-5.4c1.8-3.5,0.6-5.4-2.7-5.4h-1.2L221.1,180.8z"/>
	<path class="st0" d="M251.8,185h-6.3l-0.8-7.4h-0.1l-3.9,7.4h-5l10.2-19.4h7.5c3.8,0,5.8,1.8,3.6,6c-1.4,2.7-4.1,5-7.1,5.5
		L251.8,185z M246.4,174.3h0.5c1.6,0,3.7-0.3,4.8-2.4c1.1-2.1-0.6-2.4-2.2-2.4h-0.5L246.4,174.3z"/>
	<path class="st0" d="M262.4,181.7l-3.1,3.4H254l17.7-19.4h5.5l-2.9,19.4h-5.4l0.5-3.4H262.4z M271.2,171.6L271.2,171.6l-5.4,6.2
		h4.2L271.2,171.6z"/>
	<path class="st0" d="M305.4,165.7l-5.8,10.9c-1.3,2.5-2.7,5-5.6,6.8c-2.5,1.6-5.3,2.2-7.6,2.2c-2.3,0-4.5-0.6-5.3-2.2
		c-0.9-1.9,0.3-4.3,1.6-6.8l5.8-10.9h5l-5.4,10.2c-1.3,2.5-2.6,5.3,0.6,5.3c3.2,0,4.9-2.7,6.2-5.3l5.4-10.2H305.4z"/>
	<path class="st0" d="M308.2,180.8h6L312,185h-11.1l10.2-19.4h5L308.2,180.8z"/>
	<path class="st0" d="M321.2,185h-5l10.2-19.4h5L321.2,185z"/>
	<path class="st0" d="M347.7,172.2c-0.3-1.4-1.6-2.1-3.3-2.1c-3.1,0-6.4,2.4-8,5.4c-1.6,3.1-0.7,5.3,2.5,5.3c1.6,0,3.7-0.8,5.4-2.1
		l-3.2,6c-1.9,0.5-3.4,0.9-4.9,0.9c-2.7,0-4.7-1-5.8-2.9c-1.1-1.9-0.8-4.4,0.8-7.3c1.4-2.6,3.7-5.2,6.6-7.1c2.9-2,6.3-3.1,9-3.1
		c1.6,0,2.9,0.4,4.1,1L347.7,172.2z"/>
	<path class="st0" d="M363,185h-5l10.2-19.4h5L363,185z"/>
	<path class="st0" d="M379.1,165.7h5l3,11.8h0.1l6.3-11.8h5L388.2,185h-5l-3-11.9h-0.1l-6.3,11.9h-5L379.1,165.7z"/>
	<path class="st0" d="M404.3,165.7h5l3,11.8h0.1l6.3-11.8h5L413.4,185h-5l-3-11.9h-0.1l-6.3,11.9h-5L404.3,165.7z"/>
	<path class="st0" d="M445,175c-3.3,6.3-10.1,10.7-16.4,10.7c-6.2,0-8.4-4.4-5.1-10.7c3.1-5.9,10.4-10,16-10
		C445.2,165,448.1,169.1,445,175z M428.8,175c-1.8,3.3-0.6,5.8,2.4,5.8c3,0,6.8-2.4,8.5-5.8c1.4-2.7,0.2-5.1-2.8-5.1
		C434,169.9,430.3,172.3,428.8,175z"/>
	<path class="st0" d="M454.7,177.4l10.9-11.8h5.5L452.6,185h-3.9l2.1-19.4h5.5L454.7,177.4z"/>
	<path class="st0" d="M469.1,181.7L466,185h-5.3l17.7-19.4h5.5l-2.9,19.4h-5.4l0.5-3.4H469.1z M477.9,171.6L477.9,171.6l-5.4,6.2
		h4.2L477.9,171.6z"/>
	<path class="st0" d="M491.2,185h-5l8-15.1H490l2.3-4.3h13.4l-2.3,4.3h-4.2L491.2,185z"/>
	<path class="st0" d="M504.8,185h-5l10.2-19.4h5L504.8,185z"/>
	<path class="st0" d="M536.4,175c-3.3,6.3-10.1,10.7-16.4,10.7c-6.2,0-8.4-4.4-5.1-10.7c3.1-5.9,10.4-10,16-10
		C536.5,165,539.5,169.1,536.4,175z M520.2,175c-1.8,3.3-0.6,5.8,2.4,5.8c3,0,6.8-2.4,8.5-5.8c1.4-2.7,0.2-5.1-2.8-5.1
		C525.4,169.9,521.6,172.3,520.2,175z"/>
	<path class="st0" d="M544.9,165.7h5l3,11.8h0.1l6.3-11.8h5L554.1,185h-5l-3-11.9H546l-6.3,11.9h-5L544.9,165.7z"/>
</g>
</svg>
