<?xml version="1.0" encoding="utf-8"?>
<!-- Generator: Adobe Illustrator 22.1.0, SVG Export Plug-In . SVG Version: 6.00 Build 0)  -->
<svg version="1.1" id="Layer_1" xmlns="http://www.w3.org/2000/svg" xmlns:xlink="http://www.w3.org/1999/xlink" x="0px" y="0px"
	 viewBox="0 0 20 20" style="enable-background:new 0 0 20 20;" xml:space="preserve">
<style type="text/css">
	.st0{fill:#FFFFFF;}
</style>
<g id="Symbols">
	<g id="Mobile-Nav-_x2F_-Open" transform="translate(-285.000000, -15.000000)">
		<path id="Cross" class="st0" d="M297.8,25.2l6.3-6.4c1-0.9,1.3-2,0.3-2.9c-1-0.9-2-0.6-3,0.4l-6.2,6.3l-6.6-6.6
			c-1-0.9-2-1.3-3-0.3c-1,0.9-0.7,2.1,0.3,3l6.6,6.6l-6.3,6.3c-1,0.9-1.3,2.1-0.3,3c1,0.9,2,0.6,3-0.3l6.3-6.3l6,6
			c1,0.9,1.9,1.2,2.9,0.3c1-0.9,0.6-2-0.3-3L297.8,25.2z"/>
	</g>
</g>
</svg>
